<?xml version="1.0" encoding="utf-8"?>

<!DOCTYPE svg PUBLIC "-//W3C//DTD SVG 1.1//EN" "http://www.w3.org/Graphics/SVG/1.1/DTD/svg11.dtd">
<!-- Uploaded to: SVG Repo, www.svgrepo.com, Generator: SVG Repo Mixer Tools -->
<svg version="1.1" id="_x32_" xmlns="http://www.w3.org/2000/svg" xmlns:xlink="http://www.w3.org/1999/xlink" 
	 viewBox="0 0 512 512"  xml:space="preserve">
<style type="text/css">
	.st0{fill:#000000;}
</style>
<g>
	<rect x="159.865" y="224.836" class="st0" width="30.76" height="30.75"/>
	<rect x="229.3" y="224.836" class="st0" width="30.759" height="30.75"/>
	<rect x="298.743" y="224.836" class="st0" width="30.76" height="30.75"/>
	<rect x="368.177" y="224.836" class="st0" width="30.76" height="30.75"/>
	<path class="st0" d="M491.772,285.595l4.928-1.013l-12.22-59.477h-37.544l-17.283-51.848h-39.502v-69.992H319.73l-11.03,69.992
		h-55.67l15.122-60.49h-46.33l-34.565,60.49h-45.054L68.92,285.595H0l75.612,123.139h419.105L512,285.595H491.772z M151.595,190.54
		h45.688l34.566-60.49h14.177l-15.131,60.49h186.304l17.283,51.848h35.907l8.877,43.207H89.974L151.595,190.54z M487.443,336.194
		H51.35l-9.95-16.202h448.312L487.443,336.194z"/>
</g>
</svg>