<svg version="1.1" id="Layer_1" xmlns="http://www.w3.org/2000/svg" xmlns:xlink="http://www.w3.org/1999/xlink" x="0px" y="0px"
	 width="100%" viewBox="0 0 761 251" enable-background="new 0 0 761 251" xml:space="preserve">
<path fill="#FFFFFF" opacity="1.000000" stroke="none" 
	d="
M762.000000,223.000000 
	C762.000000,232.660278 762.000000,242.320557 762.000000,252.000000 
	C553.977356,252.000000 345.954712,252.000000 137.654297,251.631378 
	C139.198853,251.156448 141.058929,251.249634 142.837753,250.913223 
	C161.982742,247.292450 180.025192,240.781509 195.470551,228.665039 
	C202.513916,223.139709 208.550751,216.331284 215.351624,209.960785 
	C220.448090,204.173935 225.840744,198.934113 229.922470,192.819229 
	C248.534927,164.935730 254.801437,134.356781 249.047302,101.268845 
	C245.128616,78.735344 235.467010,58.890926 220.330978,42.016190 
	C201.087143,20.561789 177.081726,7.230350 148.337463,2.940959 
	C144.546188,2.375202 140.778580,1.650883 137.000000,0.999999 
	C345.226624,1.000000 553.453247,1.000000 762.000000,1.000000 
	C762.000000,73.688995 762.000000,146.378464 761.574097,219.533966 
	C756.657410,220.465591 754.257080,218.937836 754.947937,213.944443 
	C755.255798,211.719391 755.000000,209.416336 755.000000,206.878815 
	C752.970215,207.057388 751.572021,207.180405 750.000000,207.318710 
	C750.000000,208.651245 750.005554,209.632767 749.999146,210.614227 
	C749.918152,223.000000 749.917725,223.000000 762.000000,223.000000 
M322.001495,221.206253 
	C324.147522,221.130493 326.353912,220.715424 328.420959,221.083359 
	C330.161377,221.393173 331.739685,222.613373 333.389771,223.430573 
	C332.299103,217.837494 330.620483,213.470566 328.631348,209.249969 
	C327.095551,205.991272 323.622101,205.857391 322.067841,209.076691 
	C320.398193,212.535095 319.303162,216.270935 317.231659,219.670837 
	C317.077972,211.899323 311.006927,213.011368 305.828033,211.930588 
	C308.358337,210.634811 310.832489,210.402786 313.267242,209.955902 
	C314.209259,209.783020 315.061920,209.123306 315.955292,208.685364 
	C315.023132,208.123795 314.130737,207.179123 313.150848,207.077377 
	C310.843414,206.837814 308.492676,207.055130 306.162415,206.986816 
	C303.023010,206.894791 301.242615,208.007385 300.933838,211.464966 
	C300.598236,215.222534 302.682800,216.506317 305.734039,216.948883 
	C307.414215,217.192596 309.158752,216.992538 310.874298,216.992538 
	C310.958801,217.563232 311.043335,218.133911 311.127869,218.704605 
	C308.035370,219.565018 304.942841,220.425446 301.850342,221.285873 
	C302.049225,221.801697 302.248077,222.317520 302.446960,222.833344 
	C307.631134,222.833344 312.815338,222.833344 318.746185,222.980362 
	C319.502289,222.931351 320.258362,222.882355 321.534821,222.909531 
	C321.634338,222.612259 321.733856,222.314987 322.001495,221.206253 
M584.033325,101.771866 
	C586.168518,98.915344 587.835022,95.468369 590.535889,93.324364 
	C596.284180,88.761116 603.286499,87.049507 610.572632,87.027893 
	C635.229736,86.954750 659.887146,87.000000 684.544434,87.000000 
	C686.300537,87.000000 688.056580,87.000000 690.250000,87.000000 
	C690.250000,121.723564 690.250000,155.780945 690.250000,190.000000 
	C692.352051,190.000000 694.007507,190.000031 695.662964,189.999985 
	C699.494812,189.999893 703.330994,190.115356 707.157654,189.974564 
	C714.221008,189.714691 717.999329,185.666245 717.999573,178.562103 
	C718.000610,149.906326 718.000000,121.250549 718.000000,92.594772 
	C718.000000,90.825317 718.000000,89.055855 718.000000,86.999931 
	C728.535645,86.999931 738.504211,87.029495 748.472412,86.986893 
	C753.133911,86.966972 758.737549,83.643600 758.909241,80.429016 
	C759.198120,75.020180 758.988403,69.584717 758.988403,64.000000 
	C756.500549,64.000000 754.680847,64.000000 752.861145,64.000000 
	C707.045227,64.000000 661.229248,63.954681 615.413452,64.044853 
	C607.827576,64.059784 600.194763,64.246391 592.669739,65.106514 
	C583.193359,66.189674 574.390503,69.259476 567.285583,76.175888 
	C555.461853,87.685867 551.439148,102.508919 550.168152,118.106003 
	C549.208374,129.883194 549.625061,141.777512 552.973389,153.355438 
	C555.730408,162.888916 559.905945,171.710068 567.170959,178.492645 
	C575.879028,186.622498 587.044434,189.423431 598.532837,189.865967 
	C612.839539,190.417099 627.184937,190.115952 641.510742,189.941986 
	C647.400879,189.870468 652.652588,185.723083 652.931946,181.156967 
	C653.212952,176.563583 652.993774,171.939606 652.993774,166.000000 
	C637.266785,166.000000 622.032288,166.437180 606.836731,165.855850 
	C595.537170,165.423569 587.480591,160.940979 584.070374,148.964142 
	C582.440796,143.241058 582.082642,137.166550 580.940857,131.291611 
	C579.016479,121.390060 580.862915,111.922569 584.033325,101.771866 
M419.000000,154.325073 
	C418.666443,150.739090 418.473145,147.133423 417.973755,143.570679 
	C416.267578,131.398132 410.363190,121.872124 398.659424,117.512863 
	C392.538513,115.233032 385.647552,114.451073 379.050903,114.144882 
	C367.747467,113.620239 356.401398,114.077034 345.074677,113.969078 
	C338.889099,113.910118 333.207947,109.976372 331.362000,104.848274 
	C329.541168,99.789925 330.944244,93.095322 335.536530,90.261032 
	C338.662628,88.331642 342.778717,87.204712 346.476959,87.140099 
	C364.296051,86.828781 382.123627,87.014305 399.948120,86.992249 
	C406.182037,86.984535 411.708710,82.821091 411.953705,77.744995 
	C412.168091,73.303490 411.998474,68.843445 411.998474,64.563240 
	C411.257233,64.275009 410.964935,64.062065 410.672363,64.061722 
	C384.352631,64.030907 358.029144,63.768513 331.715576,64.164909 
	C324.615997,64.271858 317.860535,66.796173 312.326508,72.072601 
	C300.896942,82.970093 297.977020,96.340424 301.215210,111.064781 
	C303.002716,119.192764 307.143341,126.512321 314.684143,131.176819 
	C320.606812,134.840393 327.059448,136.778687 333.995667,136.984299 
	C347.078888,137.372177 360.167572,137.586624 373.248688,138.030334 
	C381.205719,138.300217 387.642029,144.673004 388.036560,151.990860 
	C388.427704,159.245850 382.249481,165.182907 374.999084,165.907806 
	C367.618469,166.645737 360.168213,166.882843 352.744720,166.954758 
	C337.301666,167.104385 321.856171,167.000000 306.000000,167.000000 
	C306.000000,170.891907 306.329163,174.387680 305.932617,177.799103 
	C305.061859,185.290405 310.591888,189.853455 317.631348,189.860596 
	C342.042938,189.885406 366.461395,189.549118 390.862671,188.844437 
	C397.006775,188.666992 402.573822,185.797440 407.312134,181.322327 
	C414.895050,174.160660 417.490051,164.999329 419.000000,154.325073 
M432.000000,171.499435 
	C432.000000,177.597076 432.000000,183.694717 432.000000,189.998627 
	C438.283203,189.998627 443.938538,190.179871 449.577118,189.950211 
	C455.843903,189.694946 459.985291,185.062866 459.995331,178.714249 
	C460.012360,167.933655 460.000000,157.153030 460.000000,146.000000 
	C477.109863,146.000000 493.738129,146.116760 510.363556,145.951813 
	C518.955383,145.866562 526.560120,143.044281 532.776001,136.770035 
	C540.883789,128.586014 544.245850,118.668564 545.087280,107.341713 
	C546.840515,83.741997 529.481323,61.676575 501.553955,63.695621 
	C480.332184,65.229881 458.910553,64.000000 437.577850,64.000000 
	C435.809570,64.000000 434.041260,64.000000 432.000000,64.000000 
	C432.000000,99.887794 432.000000,135.193680 432.000000,171.499435 
M347.587036,216.886856 
	C348.765808,217.473740 349.944580,218.060623 351.123352,218.647507 
	C350.557373,219.396118 349.991394,220.144730 349.425415,220.893341 
	C347.950958,219.155289 345.588623,217.603653 345.176880,215.642487 
	C344.149719,210.749908 347.790741,210.147827 351.573059,209.948837 
	C353.125916,209.867142 354.648926,209.217850 356.185547,208.826736 
	C355.941772,207.889633 355.697998,206.952515 355.454254,206.015396 
	C350.718964,207.156021 345.306274,207.306931 341.550049,209.877899 
	C339.815765,211.064972 339.931488,217.859238 341.647430,220.563766 
	C344.974609,225.807846 351.021820,221.832184 355.810028,223.138657 
	C355.967896,220.882706 356.081818,219.254730 356.248962,216.866318 
	C358.785736,222.868149 362.284882,224.584320 368.585114,222.908737 
	C372.382050,221.898911 373.237152,218.562973 372.958282,215.076096 
	C372.688660,211.704178 372.648712,207.854385 368.220001,207.051559 
	C361.080841,205.757385 358.506927,207.119537 356.230560,213.003204 
	C353.974792,213.003204 351.590515,212.700348 349.356781,213.148285 
	C348.428314,213.334473 347.821167,215.122971 347.587036,216.886856 
M725.141296,221.611298 
	C729.227905,223.895996 734.706787,223.238205 738.147888,221.004501 
	C739.505371,220.123322 742.080994,220.755997 743.990356,221.190231 
	C745.887634,221.621765 747.644653,222.669922 750.372681,223.836624 
	C748.186035,218.169098 746.747803,213.882401 744.835571,209.818771 
	C744.246277,208.566544 742.280273,207.094772 741.093872,207.213577 
	C739.655640,207.357590 737.843750,208.804962 737.132751,210.175552 
	C735.409302,213.497787 734.230286,217.102417 732.831848,220.593246 
	C732.501709,220.512421 732.171509,220.431595 731.841309,220.350784 
	C731.841309,215.957611 731.841309,211.564438 731.841309,206.920776 
	C729.996460,207.061966 728.580688,207.170303 726.964600,207.293976 
	C726.964600,209.870041 726.964600,212.129745 726.964600,214.862091 
	C723.795410,211.817047 724.287964,204.776825 717.232178,207.407822 
	C717.232178,212.356277 717.232178,217.450455 717.232178,222.913483 
	C718.559631,222.820770 719.736084,222.738602 721.160889,222.639084 
	C721.160889,219.712982 721.160889,217.160202 721.160889,213.620895 
	C722.750671,216.618561 723.862793,218.715500 725.141296,221.611298 
M421.254913,207.000000 
	C418.639893,207.000000 416.024841,207.000000 413.000000,207.000000 
	C413.000000,209.887634 413.000000,212.340652 413.000000,214.793671 
	C413.000000,217.422989 413.000000,220.052307 413.000000,222.642471 
	C419.276978,224.158463 415.867188,218.898285 418.420166,216.244095 
	C420.377533,218.185654 422.367737,220.159821 424.357971,222.133987 
	C424.121399,222.436386 423.884827,222.738770 423.648285,223.041168 
	C425.067383,222.943039 426.486481,222.844910 427.934052,222.744797 
	C427.475586,219.810730 427.066925,217.195343 426.658234,214.579941 
	C430.512177,223.547287 432.417297,224.591644 442.079071,221.643158 
	C440.919220,220.710815 439.570831,220.419342 438.283875,219.956924 
	C436.575775,219.343185 434.915588,218.596069 433.299713,217.932892 
	C435.666718,214.983887 441.609283,220.248535 442.060394,212.941589 
	C438.868958,212.941589 436.174164,212.941589 433.479370,212.941589 
	C434.987396,211.318893 436.706116,210.680954 438.413696,210.014557 
	C439.640778,209.535629 440.852997,209.018677 442.071838,208.518707 
	C431.170319,206.446915 430.603821,206.680557 428.407745,212.972855 
	C427.566711,209.448349 426.689514,206.167053 421.254913,207.000000 
M580.208252,222.693695 
	C583.422791,222.693695 586.637329,222.693695 589.820801,222.693695 
	C589.820801,217.345581 589.820801,212.411392 589.820801,207.368256 
	C588.141907,207.368256 586.650208,207.368256 584.893005,207.368256 
	C584.893005,211.935257 584.893005,216.142868 584.893005,220.350494 
	C582.666077,216.898621 581.455383,213.146545 579.796204,209.604523 
	C579.257385,208.454163 577.633179,207.389526 576.342957,207.145782 
	C575.285828,206.946106 573.322327,207.708984 572.907654,208.586868 
	C570.751343,213.152634 568.962341,217.891907 566.396606,224.154770 
	C569.491272,222.749359 571.377197,222.168854 572.947998,221.117447 
	C575.569458,219.362732 577.773193,218.924301 580.208252,222.693695 
M449.601715,220.095520 
	C450.559570,221.063171 451.522095,222.807022 452.474091,222.801270 
	C453.654083,222.794159 455.076691,221.535004 455.928925,220.450775 
	C456.764069,219.388260 457.014801,217.866409 457.810638,215.794891 
	C458.125885,223.047516 458.125885,223.047516 461.655029,222.293579 
	C461.655029,217.201096 461.655029,212.151840 461.655029,207.327072 
	C452.913513,204.918564 455.850311,213.865280 452.279419,216.546066 
	C451.366730,213.298615 450.507660,210.241806 449.680725,207.299438 
	C447.371918,207.299438 445.310638,207.299438 443.269714,207.299438 
	C443.269714,212.672623 443.269714,217.742661 443.269714,223.047653 
	C444.980988,222.938416 446.407745,222.847336 447.820679,222.757141 
	C447.970276,220.850769 448.096436,219.243271 448.222595,217.635773 
	C448.443512,217.638107 448.664398,217.640442 448.885284,217.642776 
	C448.950439,218.254868 449.015564,218.866943 449.601715,220.095520 
M696.996399,211.415375 
	C696.476013,209.947998 695.955566,208.480621 695.504272,207.208328 
	C693.589172,207.208328 691.986084,207.208328 690.198730,207.208328 
	C690.198730,212.494736 690.198730,217.573654 690.198730,222.983307 
	C691.600342,222.844696 692.770874,222.728943 693.873108,222.619934 
	C693.989990,220.654327 694.081970,219.107224 694.230896,216.602005 
	C695.198242,219.284424 695.832336,221.042648 696.400635,222.618530 
	C701.495300,224.654922 702.181030,220.451645 704.065430,216.439819 
	C704.065430,219.273834 704.065430,220.900772 704.065430,222.647537 
	C705.462402,222.647537 706.636841,222.647537 707.680969,222.647537 
	C707.680969,217.240250 707.680969,212.175140 707.680969,207.145950 
	C705.723511,207.145950 704.085876,207.145950 702.501099,207.145950 
	C701.428345,210.206985 700.402954,213.132904 699.069336,216.938446 
	C698.134705,214.763901 697.592712,213.502808 696.996399,211.415375 
M637.599915,209.102692 
	C632.885986,208.124786 628.171997,207.146866 623.000671,206.074066 
	C623.000671,211.758606 623.130188,215.884354 622.959900,219.997696 
	C622.822205,223.326508 624.335571,223.477585 626.813782,222.570938 
	C626.973389,220.653961 627.119690,218.896683 627.266052,217.139420 
	C627.671143,216.828079 628.076233,216.516724 628.481384,216.205383 
	C630.456665,218.214539 632.431885,220.223709 635.112061,222.949844 
	C635.151611,222.945999 636.550659,222.809586 637.951843,222.672974 
	C637.951843,218.158676 637.951843,214.020630 637.599915,209.102692 
M489.049408,217.934036 
	C490.586945,218.052963 492.553558,217.634506 493.550507,218.430511 
	C494.725677,219.368805 495.061371,221.358505 495.720795,222.804077 
	C497.042419,222.804077 498.320496,222.804077 499.994995,222.804077 
	C499.994995,218.698883 500.322815,214.719955 499.822357,210.848099 
	C499.640015,209.437469 497.618591,207.396957 496.204407,207.184143 
	C492.683594,206.654358 489.029572,207.009766 485.221191,207.009766 
	C485.221191,212.470093 485.221191,217.525406 485.221191,222.581284 
	C489.587402,224.222504 488.989410,221.218185 489.049408,217.934036 
M682.510071,218.112549 
	C682.797485,219.669861 683.084961,221.227158 683.411621,222.997101 
	C684.983215,222.915039 686.389587,222.841583 687.999268,222.757523 
	C687.999268,218.833176 688.417419,215.139954 687.819092,211.619507 
	C687.529175,209.913574 685.530334,207.515839 683.959595,207.210831 
	C680.508423,206.540680 676.837402,207.002975 673.002075,207.002975 
	C673.002075,211.856857 672.818542,216.148300 673.130615,220.403397 
	C673.209045,221.473175 674.876221,222.426437 676.652771,224.335251 
	C676.956482,220.707535 677.104004,218.945923 677.293457,216.682892 
	C678.965088,217.166626 680.313782,217.556915 682.510071,218.112549 
M592.006287,208.837082 
	C592.006287,213.451752 592.006287,218.066406 592.006287,223.335724 
	C598.764587,222.526352 594.300842,216.866562 596.553894,214.625839 
	C599.473633,217.841766 599.109375,225.274841 606.757812,222.566071 
	C606.757812,217.445801 606.757812,212.369919 606.757812,207.254791 
	C605.108154,207.254791 603.703857,207.254791 601.860596,207.254791 
	C601.860596,209.791916 601.860596,212.098831 601.860596,214.769424 
	C598.639771,211.712143 599.338379,204.018784 592.006287,208.837082 
M548.906433,215.320648 
	C547.949341,213.971283 546.743835,212.732422 546.084473,211.250565 
	C544.497498,207.684006 542.247253,205.916290 538.000610,207.508682 
	C538.000610,211.672409 538.137024,215.806580 537.956909,219.926926 
	C537.815674,223.157425 539.211243,223.501663 541.843445,222.575180 
	C541.965149,219.816177 542.081177,217.186661 542.196106,214.582077 
	C546.211426,216.991486 545.125671,225.334549 552.999329,222.405960 
	C552.999329,218.253281 552.874695,214.116806 553.038452,209.991760 
	C553.170959,206.653503 551.597351,206.612961 548.992615,207.430542 
	C548.992615,209.927399 548.992615,212.235092 548.906433,215.320648 
M388.458954,222.864120 
	C388.637421,218.268524 388.977509,213.668549 388.852844,209.081192 
	C388.829041,208.204880 386.972473,207.378372 385.961487,206.528870 
	C385.573090,206.869415 385.184662,207.209946 384.796265,207.550476 
	C384.796265,210.180283 384.796265,212.810089 384.796265,215.359299 
	C380.764587,213.049011 381.884003,204.672363 374.000702,207.592407 
	C374.000702,211.716995 374.137238,215.850174 373.957489,219.969559 
	C373.813446,223.271286 375.340729,223.389786 378.234497,222.512222 
	C378.234497,219.797729 378.234497,217.185440 378.234497,214.719482 
	C381.765289,217.303604 380.953278,224.073273 388.458954,222.864120 
M521.904663,209.542892 
	C519.903381,215.710800 520.851318,222.032822 524.481140,222.580704 
	C527.924438,223.100418 532.529175,222.911331 535.031311,220.975967 
	C538.438477,218.340591 537.786194,213.504135 535.815735,209.652313 
	C534.031677,206.165039 527.337463,205.837555 521.904663,209.542892 
M407.799652,207.019089 
	C404.234039,207.019089 400.668427,207.019089 397.188843,207.019089 
	C397.188843,212.704102 397.188843,217.653275 397.188843,222.573746 
	C402.563995,224.724670 400.074188,219.352173 401.607697,218.115448 
	C405.289978,217.615845 410.152008,219.539749 411.111664,214.212524 
	C411.494965,212.084656 409.531921,209.534103 407.799652,207.019089 
M664.795410,223.000000 
	C667.176819,223.000000 669.558228,223.000000 671.939636,223.000000 
	C672.035034,222.346466 672.130432,221.692932 672.225891,221.039398 
	C670.889465,220.692291 669.525269,220.425995 668.223572,219.978058 
	C666.520752,219.392090 664.867249,218.662552 663.263184,218.022949 
	C665.679443,214.972717 671.610168,220.254395 672.062866,212.945343 
	C668.868164,212.945343 666.182739,212.945343 663.497253,212.945343 
	C663.424744,212.593002 663.352173,212.240662 663.279663,211.888306 
	C666.252625,210.784149 669.225525,209.679993 672.198486,208.575821 
	C671.981201,208.050568 671.763916,207.525299 671.546631,207.000046 
	C669.245789,207.000046 666.931458,207.159164 664.646851,206.966507 
	C660.070496,206.580597 658.519348,209.468079 658.052063,213.145844 
	C657.262146,219.363831 659.015442,222.089417 664.795410,223.000000 
M620.868530,222.511246 
	C620.241638,221.676102 619.783020,220.425323 618.953857,220.089615 
	C617.039551,219.314529 614.945557,218.983261 612.924377,218.471970 
	C612.993042,218.060730 613.061646,217.649490 613.130249,217.238251 
	C615.652893,217.094788 618.175476,216.951340 620.746826,216.805099 
	C620.746826,215.464539 620.746826,214.394455 620.746826,213.149689 
	C618.038696,213.021057 615.558594,212.903244 613.078491,212.785446 
	C613.058167,212.428177 613.037842,212.070908 613.017517,211.713638 
	C615.775696,210.691788 618.533813,209.669952 621.291992,208.648102 
	C621.079651,208.035416 620.867310,207.422729 620.654907,206.810028 
	C617.421509,207.068817 613.799316,206.490891 611.041077,207.772369 
	C606.290527,209.979385 607.697693,215.057312 608.235718,218.878555 
	C608.667480,221.945786 611.617126,223.485001 615.101379,223.033096 
	C616.740356,222.820511 618.425110,222.961243 620.868530,222.511246 
M473.304840,207.218323 
	C469.704681,211.202362 468.763672,216.386337 471.044006,220.187683 
	C474.183228,225.420715 478.858337,222.059235 482.770386,222.990601 
	C482.972656,222.409027 483.174927,221.827469 483.377197,221.245895 
	C480.546143,220.245102 477.715088,219.244324 474.884064,218.243530 
	C474.986298,217.909180 475.088531,217.574829 475.190796,217.240479 
	C477.751251,217.072891 480.311737,216.905319 482.930969,216.733887 
	C483.410309,209.519928 476.494232,215.464203 475.026276,211.761429 
	C477.731232,210.701706 480.390778,209.659775 483.050323,208.617844 
	C482.881165,208.086700 482.712006,207.555557 482.542847,207.024414 
	C479.743927,207.024414 476.944977,207.024414 473.304840,207.218323 
M519.916626,220.723312 
	C519.508362,220.494492 519.098267,220.064621 518.692139,220.068359 
	C515.124878,220.101364 511.409393,219.958801 511.095398,215.346161 
	C510.774261,210.628586 514.599304,210.446152 518.007507,209.921753 
	C518.866333,209.789597 519.588135,208.767029 520.372864,208.153641 
	C520.162109,207.739594 519.951294,207.325546 519.740540,206.911499 
	C515.671875,207.970993 510.617584,204.608475 507.549072,209.989487 
	C505.547882,213.498901 506.064819,221.135681 508.820251,221.907486 
	C512.242310,222.865982 516.231079,221.801147 519.916626,220.723312 
M649.000000,219.314667 
	C648.765747,222.031967 649.211975,223.976349 653.056519,222.453308 
	C653.056519,218.451141 653.056519,214.362717 653.056519,210.914902 
	C655.123596,209.946777 656.616089,209.247772 658.108521,208.548782 
	C657.915222,208.104980 657.721863,207.661179 657.528564,207.217377 
	C653.104004,207.217377 648.679504,207.217377 644.254944,207.217377 
	C644.064209,207.718246 643.873535,208.219101 643.682800,208.719971 
	C645.323669,209.369232 646.964600,210.018494 649.000000,210.823868 
	C649.000000,213.115173 649.000000,215.746750 649.000000,219.314667 
M561.463013,222.985458 
	C561.975159,221.992523 562.869629,221.021835 562.928894,220.002563 
	C563.118774,216.737717 562.999390,213.454895 562.999390,210.792633 
	C565.231873,209.916351 566.785461,209.306564 568.338989,208.696777 
	C568.178101,208.214218 568.017212,207.731659 567.856323,207.249100 
	C563.285400,207.249100 558.714478,207.249100 554.143555,207.249100 
	C553.982239,207.751709 553.820923,208.254318 553.659607,208.756927 
	C555.350525,209.386688 557.041382,210.016434 559.000000,210.745895 
	C559.000000,213.072250 558.811584,215.563019 559.064758,218.008057 
	C559.239929,219.699860 560.024414,221.328568 561.463013,222.985458 
M710.074463,207.856644 
	C710.074463,212.794907 710.074463,217.733170 710.074463,222.756119 
	C711.861511,222.756119 713.253662,222.756119 714.758362,222.756119 
	C714.758362,217.446228 714.758362,212.378555 714.758362,207.112106 
	C713.226379,207.112106 711.934204,207.112106 710.074463,207.856644 
M464.000000,210.698456 
	C464.000000,214.650375 464.000000,218.602280 464.000000,222.616608 
	C465.878235,222.616608 467.369232,222.616608 468.803467,222.616608 
	C468.803467,217.301636 468.803467,212.366592 468.803467,207.168091 
	C466.614777,207.299332 463.779938,205.483139 464.000000,210.698456 
M335.000000,216.442261 
	C335.913208,218.640106 332.740936,223.369339 338.999329,222.917419 
	C338.999329,218.310547 338.844269,214.177124 339.048279,210.061508 
	C339.212219,206.754456 337.714264,206.613708 335.000000,207.403625 
	C335.000000,210.209351 335.000000,212.842758 335.000000,216.442261 
z"/>
<path fill="#FFFFFF" opacity="1.000000" stroke="none" 
	d="
M1.000000,115.000000 
	C1.000000,77.071167 1.000000,39.142342 1.000000,1.000000 
	C40.687305,1.000000 80.374992,1.000000 120.324722,1.371101 
	C88.382034,3.676423 61.474064,16.585661 39.906372,40.529053 
	C41.104996,40.586864 42.057083,40.140919 42.924011,39.566456 
	C48.102318,36.135040 53.030579,32.247898 58.471184,29.306007 
	C72.526741,21.705767 87.340378,16.619600 103.446083,14.803849 
	C122.671738,12.636356 141.064102,15.017952 159.109589,21.546982 
	C172.822266,26.508358 184.912552,33.951778 196.123260,43.360470 
	C210.019516,55.023048 220.654556,69.099411 228.405884,85.157707 
	C237.225861,103.429886 240.099319,122.920715 237.079071,143.228287 
	C234.974762,157.377106 230.197800,170.474197 222.809448,182.589462 
	C218.248947,190.067673 213.037537,197.148941 208.122086,204.402863 
	C209.842804,206.314484 211.504501,208.160538 213.011932,210.316605 
	C205.869720,215.425049 199.252319,220.916290 191.822998,224.889313 
	C171.244843,235.893921 149.405502,241.199142 125.748795,239.184189 
	C111.016663,237.929367 97.115334,234.432983 83.828049,228.320587 
	C68.480453,221.260376 54.703049,211.831573 44.140434,198.489853 
	C37.265659,189.806274 30.246426,180.986435 25.040359,171.289001 
	C16.452801,155.292740 12.714097,137.968124 13.818558,119.487839 
	C14.635283,105.822067 17.635498,92.854134 23.803604,80.900993 
	C29.454073,69.950981 36.585381,59.765118 43.341351,48.792374 
	C41.733181,47.309101 39.348286,45.109428 37.313774,42.936085 
	C38.047691,42.747059 38.431217,42.531700 38.814743,42.316345 
	C38.634487,42.128792 38.454231,41.941238 38.273975,41.753685 
	C37.857323,42.162926 37.440666,42.572166 36.698162,43.076187 
	C33.745647,46.117119 31.027023,48.986961 28.508152,52.022560 
	C17.317797,65.508514 9.233380,80.620941 4.982768,97.680702 
	C3.550823,103.427803 2.321777,109.225456 1.000000,115.000000 
M158.853363,97.426895 
	C158.283447,96.931511 157.713516,96.436127 157.268570,95.274216 
	C164.352463,88.641853 171.436356,82.009491 177.999985,75.864235 
	C163.460876,61.322460 149.500168,47.359184 134.815826,32.672146 
	C134.238297,33.507854 133.552795,34.902863 132.513382,35.944828 
	C106.993240,61.527901 81.489136,87.127632 55.814941,112.555550 
	C52.694012,115.646530 52.645306,117.350838 55.800934,120.440987 
	C68.399841,132.778412 80.713661,145.406967 92.850266,158.551453 
	C87.216629,164.221115 81.641907,169.951233 75.918320,175.528595 
	C73.835213,177.558487 73.496056,179.080673 75.736610,181.299042 
	C88.984665,194.415756 102.131508,207.634720 114.665039,220.171722 
	C142.690506,192.147430 170.548111,164.290985 198.520233,136.320023 
	C186.274048,123.999786 173.620529,111.257797 160.928070,98.554733 
	C160.521423,98.147743 159.715164,98.140045 158.853363,97.426895 
z"/>
<path fill="#D24F54" opacity="1.000000" stroke="none" 
	d="
M36.963387,42.909752 
	C39.348286,45.109428 41.733181,47.309101 43.341351,48.792374 
	C36.585381,59.765118 29.454073,69.950981 23.803604,80.900993 
	C17.635498,92.854134 14.635283,105.822067 13.818558,119.487839 
	C12.714097,137.968124 16.452801,155.292740 25.040359,171.289001 
	C30.246426,180.986435 37.265659,189.806274 44.140434,198.489853 
	C54.703049,211.831573 68.480453,221.260376 83.828049,228.320587 
	C97.115334,234.432983 111.016663,237.929367 125.748795,239.184189 
	C149.405502,241.199142 171.244843,235.893921 191.822998,224.889313 
	C199.252319,220.916290 205.869720,215.425049 213.325958,210.318207 
	C214.210876,210.041489 214.627502,210.073166 215.044098,210.104843 
	C208.550751,216.331284 202.513916,223.139709 195.470551,228.665039 
	C180.025192,240.781509 161.982742,247.292450 142.837753,250.913223 
	C141.058929,251.249634 139.198853,251.156448 137.188263,251.631378 
	C127.979103,252.000000 118.958214,252.000000 109.280403,251.631378 
	C94.994995,250.139099 82.122826,246.216736 69.855644,240.359528 
	C51.813858,231.745117 36.787403,219.373367 24.833309,203.316223 
	C16.100210,191.585632 9.402084,178.845123 5.847890,164.585205 
	C4.143162,157.745590 2.610557,150.863083 1.000001,144.000000 
	C1.000000,134.645767 1.000000,125.291542 1.000000,115.468658 
	C2.321777,109.225456 3.550823,103.427803 4.982768,97.680702 
	C9.233380,80.620941 17.317797,65.508514 28.508152,52.022560 
	C31.027023,48.986961 33.745647,46.117119 36.690121,43.052410 
	C37.007927,42.933853 36.963387,42.909752 36.963387,42.909752 
z"/>
<path fill="#F8992F" opacity="1.000000" stroke="none" 
	d="
M215.351624,209.960800 
	C214.627502,210.073166 214.210876,210.041489 213.480240,210.008194 
	C211.504501,208.160538 209.842804,206.314484 208.122086,204.402863 
	C213.037537,197.148941 218.248947,190.067673 222.809448,182.589462 
	C230.197800,170.474197 234.974762,157.377106 237.079071,143.228287 
	C240.099319,122.920715 237.225861,103.429886 228.405884,85.157707 
	C220.654556,69.099411 210.019516,55.023048 196.123260,43.360470 
	C184.912552,33.951778 172.822266,26.508358 159.109589,21.546982 
	C141.064102,15.017952 122.671738,12.636356 103.446083,14.803849 
	C87.340378,16.619600 72.526741,21.705767 58.471184,29.306007 
	C53.030579,32.247898 48.102318,36.135040 42.924011,39.566456 
	C42.057083,40.140919 41.104996,40.586864 39.906372,40.529053 
	C61.474064,16.585661 88.382034,3.676423 120.793381,1.371101 
	C126.022095,1.000000 131.044189,1.000000 136.533142,0.999999 
	C140.778580,1.650883 144.546188,2.375202 148.337463,2.940959 
	C177.081726,7.230350 201.087143,20.561789 220.330978,42.016190 
	C235.467010,58.890926 245.128616,78.735344 249.047302,101.268845 
	C254.801437,134.356781 248.534927,164.935730 229.922470,192.819229 
	C225.840744,198.934113 220.448090,204.173935 215.351624,209.960800 
z"/>
<path fill="#FFFFFF" opacity="1.000000" stroke="none" 
	d="
M1.000001,144.468658 
	C2.610557,150.863083 4.143162,157.745590 5.847890,164.585205 
	C9.402084,178.845123 16.100210,191.585632 24.833309,203.316223 
	C36.787403,219.373367 51.813858,231.745117 69.855644,240.359528 
	C82.122826,246.216736 94.994995,250.139099 108.811745,251.631378 
	C73.073051,252.000000 37.146107,252.000000 1.000000,252.000000 
	C1.000000,216.312744 1.000000,180.625031 1.000001,144.468658 
z"/>
<path fill="#004B91" opacity="1.000000" stroke="none" 
	d="
M762.000000,222.625000 
	C749.917725,223.000000 749.918152,223.000000 749.999146,210.614227 
	C750.005554,209.632767 750.000000,208.651245 750.000000,207.318710 
	C751.572021,207.180405 752.970215,207.057388 755.000000,206.878815 
	C755.000000,209.416336 755.255798,211.719391 754.947937,213.944443 
	C754.257080,218.937836 756.657410,220.465591 761.574097,220.000000 
	C762.000000,220.750000 762.000000,221.500000 762.000000,222.625000 
z"/>
<path fill="#004B91" opacity="1.000000" stroke="none" 
	d="
M583.966797,102.163940 
	C580.862915,111.922569 579.016479,121.390060 580.940857,131.291611 
	C582.082642,137.166550 582.440796,143.241058 584.070374,148.964142 
	C587.480591,160.940979 595.537170,165.423569 606.836731,165.855850 
	C622.032288,166.437180 637.266785,166.000000 652.993774,166.000000 
	C652.993774,171.939606 653.212952,176.563583 652.931946,181.156967 
	C652.652588,185.723083 647.400879,189.870468 641.510742,189.941986 
	C627.184937,190.115952 612.839539,190.417099 598.532837,189.865967 
	C587.044434,189.423431 575.879028,186.622498 567.170959,178.492645 
	C559.905945,171.710068 555.730408,162.888916 552.973389,153.355438 
	C549.625061,141.777512 549.208374,129.883194 550.168152,118.106003 
	C551.439148,102.508919 555.461853,87.685867 567.285583,76.175888 
	C574.390503,69.259476 583.193359,66.189674 592.669739,65.106514 
	C600.194763,64.246391 607.827576,64.059784 615.413452,64.044853 
	C661.229248,63.954681 707.045227,64.000000 752.861145,64.000000 
	C754.680847,64.000000 756.500549,64.000000 758.988403,64.000000 
	C758.988403,69.584717 759.198120,75.020180 758.909241,80.429016 
	C758.737549,83.643600 753.133911,86.966972 748.472412,86.986893 
	C738.504211,87.029495 728.535645,86.999931 718.000000,86.999931 
	C718.000000,89.055855 718.000000,90.825317 718.000000,92.594772 
	C718.000000,121.250549 718.000610,149.906326 717.999573,178.562103 
	C717.999329,185.666245 714.221008,189.714691 707.157654,189.974564 
	C703.330994,190.115356 699.494812,189.999893 695.662964,189.999985 
	C694.007507,190.000031 692.352051,190.000000 690.250000,190.000000 
	C690.250000,155.780945 690.250000,121.723564 690.250000,87.000000 
	C688.056580,87.000000 686.300537,87.000000 684.544434,87.000000 
	C659.887146,87.000000 635.229736,86.954750 610.572632,87.027893 
	C603.286499,87.049507 596.284180,88.761116 590.535889,93.324364 
	C587.835022,95.468369 586.168518,98.915344 583.966797,102.163940 
z"/>
<path fill="#004B91" opacity="1.000000" stroke="none" 
	d="
M418.999756,154.782715 
	C417.490051,164.999329 414.895050,174.160660 407.312134,181.322327 
	C402.573822,185.797440 397.006775,188.666992 390.862671,188.844437 
	C366.461395,189.549118 342.042938,189.885406 317.631348,189.860596 
	C310.591888,189.853455 305.061859,185.290405 305.932617,177.799103 
	C306.329163,174.387680 306.000000,170.891907 306.000000,167.000000 
	C321.856171,167.000000 337.301666,167.104385 352.744720,166.954758 
	C360.168213,166.882843 367.618469,166.645737 374.999084,165.907806 
	C382.249481,165.182907 388.427704,159.245850 388.036560,151.990860 
	C387.642029,144.673004 381.205719,138.300217 373.248688,138.030334 
	C360.167572,137.586624 347.078888,137.372177 333.995667,136.984299 
	C327.059448,136.778687 320.606812,134.840393 314.684143,131.176819 
	C307.143341,126.512321 303.002716,119.192764 301.215210,111.064781 
	C297.977020,96.340424 300.896942,82.970093 312.326508,72.072601 
	C317.860535,66.796173 324.615997,64.271858 331.715576,64.164909 
	C358.029144,63.768513 384.352631,64.030907 410.672363,64.061722 
	C410.964935,64.062065 411.257233,64.275009 411.998474,64.563240 
	C411.998474,68.843445 412.168091,73.303490 411.953705,77.744995 
	C411.708710,82.821091 406.182037,86.984535 399.948120,86.992249 
	C382.123627,87.014305 364.296051,86.828781 346.476959,87.140099 
	C342.778717,87.204712 338.662628,88.331642 335.536530,90.261032 
	C330.944244,93.095322 329.541168,99.789925 331.362000,104.848274 
	C333.207947,109.976372 338.889099,113.910118 345.074677,113.969078 
	C356.401398,114.077034 367.747467,113.620239 379.050903,114.144882 
	C385.647552,114.451073 392.538513,115.233032 398.659424,117.512863 
	C410.363190,121.872124 416.267578,131.398132 417.973755,143.570679 
	C418.473145,147.133423 418.666443,150.739090 418.999756,154.782715 
z"/>
<path fill="#004B91" opacity="1.000000" stroke="none" 
	d="
M432.000000,170.999512 
	C432.000000,135.193680 432.000000,99.887794 432.000000,64.000000 
	C434.041260,64.000000 435.809570,64.000000 437.577850,64.000000 
	C458.910553,64.000000 480.332184,65.229881 501.553955,63.695621 
	C529.481323,61.676575 546.840515,83.741997 545.087280,107.341713 
	C544.245850,118.668564 540.883789,128.586014 532.776001,136.770035 
	C526.560120,143.044281 518.955383,145.866562 510.363556,145.951813 
	C493.738129,146.116760 477.109863,146.000000 460.000000,146.000000 
	C460.000000,157.153030 460.012360,167.933655 459.995331,178.714249 
	C459.985291,185.062866 455.843903,189.694946 449.577118,189.950211 
	C443.938538,190.179871 438.283203,189.998627 432.000000,189.998627 
	C432.000000,183.694717 432.000000,177.597076 432.000000,170.999512 
M460.000000,108.409294 
	C460.325836,113.992897 460.408478,119.488747 453.570374,122.999779 
	C469.093445,122.999779 483.424286,123.160416 497.748840,122.929825 
	C504.580109,122.819862 510.884521,120.900627 513.082703,113.334999 
	C514.154114,109.647270 515.285583,105.598389 514.808044,101.918228 
	C513.822754,94.324921 511.118195,88.179207 504.354828,88.064262 
	C489.684784,87.814926 475.007568,87.987396 460.000000,87.987396 
	C460.000000,94.166924 460.000000,100.800598 460.000000,108.409294 
z"/>
<path fill="#004B91" opacity="1.000000" stroke="none" 
	d="
M347.327454,216.534851 
	C347.821167,215.122971 348.428314,213.334473 349.356781,213.148285 
	C351.590515,212.700348 353.974792,213.003204 356.230560,213.003204 
	C358.506927,207.119537 361.080841,205.757385 368.220001,207.051559 
	C372.648712,207.854385 372.688660,211.704178 372.958282,215.076096 
	C373.237152,218.562973 372.382050,221.898911 368.585114,222.908737 
	C362.284882,224.584320 358.785736,222.868149 356.248962,216.866318 
	C356.081818,219.254730 355.967896,220.882706 355.810028,223.138657 
	C351.021820,221.832184 344.974609,225.807846 341.647430,220.563766 
	C339.931488,217.859238 339.815765,211.064972 341.550049,209.877899 
	C345.306274,207.306931 350.718964,207.156021 355.454254,206.015396 
	C355.697998,206.952515 355.941772,207.889633 356.185547,208.826736 
	C354.648926,209.217850 353.125916,209.867142 351.573059,209.948837 
	C347.790741,210.147827 344.149719,210.749908 345.176880,215.642487 
	C345.588623,217.603653 347.950958,219.155289 349.425415,220.893341 
	C349.991394,220.144730 350.557373,219.396118 351.123352,218.647507 
	C349.944580,218.060623 348.765808,217.473740 347.327454,216.534851 
M367.102295,218.350937 
	C367.401367,217.304672 368.184418,216.096497 367.899719,215.245529 
	C367.288269,213.417740 366.251221,211.673676 365.043701,210.172623 
	C364.878845,209.967712 361.827881,211.203094 361.693359,212.028992 
	C361.358582,214.084549 361.592468,216.421051 362.339935,218.358505 
	C362.588806,219.003586 365.092743,218.778656 367.102295,218.350937 
z"/>
<path fill="#004B91" opacity="1.000000" stroke="none" 
	d="
M725.058105,221.211853 
	C723.862793,218.715500 722.750671,216.618561 721.160889,213.620895 
	C721.160889,217.160202 721.160889,219.712982 721.160889,222.639084 
	C719.736084,222.738602 718.559631,222.820770 717.232178,222.913483 
	C717.232178,217.450455 717.232178,212.356277 717.232178,207.407822 
	C724.287964,204.776825 723.795410,211.817047 726.964600,214.862091 
	C726.964600,212.129745 726.964600,209.870041 726.964600,207.293976 
	C728.580688,207.170303 729.996460,207.061966 731.841309,206.920776 
	C731.841309,211.564438 731.841309,215.957611 731.841309,220.350784 
	C732.171509,220.431595 732.501709,220.512421 732.831848,220.593246 
	C734.230286,217.102417 735.409302,213.497787 737.132751,210.175552 
	C737.843750,208.804962 739.655640,207.357590 741.093872,207.213577 
	C742.280273,207.094772 744.246277,208.566544 744.835571,209.818771 
	C746.747803,213.882401 748.186035,218.169098 750.372681,223.836624 
	C747.644653,222.669922 745.887634,221.621765 743.990356,221.190231 
	C742.080994,220.755997 739.505371,220.123322 738.147888,221.004501 
	C734.706787,223.238205 729.227905,223.895996 725.058105,221.211853 
z"/>
<path fill="#004B91" opacity="1.000000" stroke="none" 
	d="
M421.709656,207.000000 
	C426.689514,206.167053 427.566711,209.448349 428.407745,212.972855 
	C430.603821,206.680557 431.170319,206.446915 442.071838,208.518707 
	C440.852997,209.018677 439.640778,209.535629 438.413696,210.014557 
	C436.706116,210.680954 434.987396,211.318893 433.479370,212.941589 
	C436.174164,212.941589 438.868958,212.941589 442.060394,212.941589 
	C441.609283,220.248535 435.666718,214.983887 433.299713,217.932892 
	C434.915588,218.596069 436.575775,219.343185 438.283875,219.956924 
	C439.570831,220.419342 440.919220,220.710815 442.079071,221.643158 
	C432.417297,224.591644 430.512177,223.547287 426.658234,214.579941 
	C427.066925,217.195343 427.475586,219.810730 427.934052,222.744797 
	C426.486481,222.844910 425.067383,222.943039 423.648285,223.041168 
	C423.884827,222.738770 424.121399,222.436386 424.357971,222.133987 
	C422.367737,220.159821 420.377533,218.185654 418.420166,216.244095 
	C415.867188,218.898285 419.276978,224.158463 413.000000,222.642471 
	C413.000000,220.052307 413.000000,217.422989 413.000000,214.793671 
	C413.000000,212.340652 413.000000,209.887634 413.000000,207.000000 
	C416.024841,207.000000 418.639893,207.000000 421.709656,207.000000 
z"/>
<path fill="#004B91" opacity="1.000000" stroke="none" 
	d="
M579.905518,222.371628 
	C577.773193,218.924301 575.569458,219.362732 572.947998,221.117447 
	C571.377197,222.168854 569.491272,222.749359 566.396606,224.154770 
	C568.962341,217.891907 570.751343,213.152634 572.907654,208.586868 
	C573.322327,207.708984 575.285828,206.946106 576.342957,207.145782 
	C577.633179,207.389526 579.257385,208.454163 579.796204,209.604523 
	C581.455383,213.146545 582.666077,216.898621 584.893005,220.350494 
	C584.893005,216.142868 584.893005,211.935257 584.893005,207.368256 
	C586.650208,207.368256 588.141907,207.368256 589.820801,207.368256 
	C589.820801,212.411392 589.820801,217.345581 589.820801,222.693695 
	C586.637329,222.693695 583.422791,222.693695 579.905518,222.371628 
z"/>
<path fill="#004B91" opacity="1.000000" stroke="none" 
	d="
M449.341187,219.787277 
	C449.015564,218.866943 448.950439,218.254868 448.885284,217.642776 
	C448.664398,217.640442 448.443512,217.638107 448.222595,217.635773 
	C448.096436,219.243271 447.970276,220.850769 447.820679,222.757141 
	C446.407745,222.847336 444.980988,222.938416 443.269714,223.047653 
	C443.269714,217.742661 443.269714,212.672623 443.269714,207.299438 
	C445.310638,207.299438 447.371918,207.299438 449.680725,207.299438 
	C450.507660,210.241806 451.366730,213.298615 452.279419,216.546066 
	C455.850311,213.865280 452.913513,204.918564 461.655029,207.327072 
	C461.655029,212.151840 461.655029,217.201096 461.655029,222.293579 
	C458.125885,223.047516 458.125885,223.047516 457.810638,215.794891 
	C457.014801,217.866409 456.764069,219.388260 455.928925,220.450775 
	C455.076691,221.535004 453.654083,222.794159 452.474091,222.801270 
	C451.522095,222.807022 450.559570,221.063171 449.341187,219.787277 
z"/>
<path fill="#004B91" opacity="1.000000" stroke="none" 
	d="
M697.023560,211.828552 
	C697.592712,213.502808 698.134705,214.763901 699.069336,216.938446 
	C700.402954,213.132904 701.428345,210.206985 702.501099,207.145950 
	C704.085876,207.145950 705.723511,207.145950 707.680969,207.145950 
	C707.680969,212.175140 707.680969,217.240250 707.680969,222.647537 
	C706.636841,222.647537 705.462402,222.647537 704.065430,222.647537 
	C704.065430,220.900772 704.065430,219.273834 704.065430,216.439819 
	C702.181030,220.451645 701.495300,224.654922 696.400635,222.618530 
	C695.832336,221.042648 695.198242,219.284424 694.230896,216.602005 
	C694.081970,219.107224 693.989990,220.654327 693.873108,222.619934 
	C692.770874,222.728943 691.600342,222.844696 690.198730,222.983307 
	C690.198730,217.573654 690.198730,212.494736 690.198730,207.208328 
	C691.986084,207.208328 693.589172,207.208328 695.504272,207.208328 
	C695.955566,208.480621 696.476013,209.947998 697.023560,211.828552 
z"/>
<path fill="#004B91" opacity="1.000000" stroke="none" 
	d="
M637.775879,209.492645 
	C637.951843,214.020630 637.951843,218.158676 637.951843,222.672974 
	C636.550659,222.809586 635.151611,222.945999 635.112061,222.949844 
	C632.431885,220.223709 630.456665,218.214539 628.481384,216.205383 
	C628.076233,216.516724 627.671143,216.828079 627.266052,217.139420 
	C627.119690,218.896683 626.973389,220.653961 626.813782,222.570938 
	C624.335571,223.477585 622.822205,223.326508 622.959900,219.997696 
	C623.130188,215.884354 623.000671,211.758606 623.000671,206.074066 
	C628.171997,207.146866 632.885986,208.124786 637.775879,209.492645 
z"/>
<path fill="#004B91" opacity="1.000000" stroke="none" 
	d="
M489.027222,218.369614 
	C488.989410,221.218185 489.587402,224.222504 485.221191,222.581284 
	C485.221191,217.525406 485.221191,212.470093 485.221191,207.009766 
	C489.029572,207.009766 492.683594,206.654358 496.204407,207.184143 
	C497.618591,207.396957 499.640015,209.437469 499.822357,210.848099 
	C500.322815,214.719955 499.994995,218.698883 499.994995,222.804077 
	C498.320496,222.804077 497.042419,222.804077 495.720795,222.804077 
	C495.061371,221.358505 494.725677,219.368805 493.550507,218.430511 
	C492.553558,217.634506 490.586945,218.052963 489.027222,218.369614 
z"/>
<path fill="#004B91" opacity="1.000000" stroke="none" 
	d="
M682.086304,218.029877 
	C680.313782,217.556915 678.965088,217.166626 677.293457,216.682892 
	C677.104004,218.945923 676.956482,220.707535 676.652771,224.335251 
	C674.876221,222.426437 673.209045,221.473175 673.130615,220.403397 
	C672.818542,216.148300 673.002075,211.856857 673.002075,207.002975 
	C676.837402,207.002975 680.508423,206.540680 683.959595,207.210831 
	C685.530334,207.515839 687.529175,209.913574 687.819092,211.619507 
	C688.417419,215.139954 687.999268,218.833176 687.999268,222.757523 
	C686.389587,222.841583 684.983215,222.915039 683.411621,222.997101 
	C683.084961,221.227158 682.797485,219.669861 682.086304,218.029877 
z"/>
<path fill="#004B91" opacity="1.000000" stroke="none" 
	d="
M592.033386,208.375336 
	C599.338379,204.018784 598.639771,211.712143 601.860596,214.769424 
	C601.860596,212.098831 601.860596,209.791916 601.860596,207.254791 
	C603.703857,207.254791 605.108154,207.254791 606.757812,207.254791 
	C606.757812,212.369919 606.757812,217.445801 606.757812,222.566071 
	C599.109375,225.274841 599.473633,217.841766 596.550964,214.632050 
	C594.300842,216.866562 598.764587,222.526352 592.006287,223.335724 
	C592.006287,218.066406 592.006287,213.451752 592.033386,208.375336 
z"/>
<path fill="#004B91" opacity="1.000000" stroke="none" 
	d="
M548.949524,214.931717 
	C548.992615,212.235092 548.992615,209.927399 548.992615,207.430542 
	C551.597351,206.612961 553.170959,206.653503 553.038452,209.991760 
	C552.874695,214.116806 552.999329,218.253281 552.999329,222.405960 
	C545.125671,225.334549 546.211426,216.991486 542.196106,214.582077 
	C542.081177,217.186661 541.965149,219.816177 541.843445,222.575180 
	C539.211243,223.501663 537.815674,223.157425 537.956909,219.926926 
	C538.137024,215.806580 538.000610,211.672409 538.000610,207.508682 
	C542.247253,205.916290 544.497498,207.684006 546.084473,211.250565 
	C546.743835,212.732422 547.949341,213.971283 548.949524,214.931717 
z"/>
<path fill="#004B91" opacity="1.000000" stroke="none" 
	d="
M388.010620,222.923462 
	C380.953278,224.073273 381.765289,217.303604 378.234497,214.719482 
	C378.234497,217.185440 378.234497,219.797729 378.234497,222.512222 
	C375.340729,223.389786 373.813446,223.271286 373.957489,219.969559 
	C374.137238,215.850174 374.000702,211.716995 374.000702,207.592407 
	C381.884003,204.672363 380.764587,213.049011 384.796265,215.359299 
	C384.796265,212.810089 384.796265,210.180283 384.796265,207.550476 
	C385.184662,207.209946 385.573090,206.869415 385.961487,206.528870 
	C386.972473,207.378372 388.829041,208.204880 388.852844,209.081192 
	C388.977509,213.668549 388.637421,218.268524 388.010620,222.923462 
z"/>
<path fill="#004B91" opacity="1.000000" stroke="none" 
	d="
M317.999512,222.833344 
	C312.815338,222.833344 307.631134,222.833344 302.446960,222.833344 
	C302.248077,222.317520 302.049225,221.801697 301.850342,221.285873 
	C304.942841,220.425446 308.035370,219.565018 311.127869,218.704605 
	C311.043335,218.133911 310.958801,217.563232 310.874298,216.992538 
	C309.158752,216.992538 307.414215,217.192596 305.734039,216.948883 
	C302.682800,216.506317 300.598236,215.222534 300.933838,211.464966 
	C301.242615,208.007385 303.023010,206.894791 306.162415,206.986816 
	C308.492676,207.055130 310.843414,206.837814 313.150848,207.077377 
	C314.130737,207.179123 315.023132,208.123795 315.955292,208.685364 
	C315.061920,209.123306 314.209259,209.783020 313.267242,209.955902 
	C310.832489,210.402786 308.358337,210.634811 305.828033,211.930588 
	C311.006927,213.011368 317.077972,211.899323 317.606445,220.146606 
	C317.987335,221.359360 317.993408,222.096344 317.999512,222.833344 
z"/>
<path fill="#004B91" opacity="1.000000" stroke="none" 
	d="
M521.988159,209.116837 
	C527.337463,205.837555 534.031677,206.165039 535.815735,209.652313 
	C537.786194,213.504135 538.438477,218.340591 535.031311,220.975967 
	C532.529175,222.911331 527.924438,223.100418 524.481140,222.580704 
	C520.851318,222.032822 519.903381,215.710800 521.988159,209.116837 
M531.999634,214.591980 
	C530.851990,213.095078 529.704407,211.598175 528.556763,210.101273 
	C527.373352,211.653046 525.192078,213.253769 525.265198,214.743942 
	C525.351929,216.512955 527.378540,218.186829 528.564514,219.901901 
	C529.709534,218.401382 530.854614,216.900848 531.999634,214.591980 
z"/>
<path fill="#004B91" opacity="1.000000" stroke="none" 
	d="
M408.218292,207.097519 
	C409.531921,209.534103 411.494965,212.084656 411.111664,214.212524 
	C410.152008,219.539749 405.289978,217.615845 401.607697,218.115448 
	C400.074188,219.352173 402.563995,224.724670 397.188843,222.573746 
	C397.188843,217.653275 397.188843,212.704102 397.188843,207.019089 
	C400.668427,207.019089 404.234039,207.019089 408.218292,207.097519 
z"/>
<path fill="#004B91" opacity="1.000000" stroke="none" 
	d="
M664.351990,222.999878 
	C659.015442,222.089417 657.262146,219.363831 658.052063,213.145844 
	C658.519348,209.468079 660.070496,206.580597 664.646851,206.966507 
	C666.931458,207.159164 669.245789,207.000046 671.546631,207.000046 
	C671.763916,207.525299 671.981201,208.050568 672.198486,208.575821 
	C669.225525,209.679993 666.252625,210.784149 663.279663,211.888306 
	C663.352173,212.240662 663.424744,212.593002 663.497253,212.945343 
	C666.182739,212.945343 668.868164,212.945343 672.062866,212.945343 
	C671.610168,220.254395 665.679443,214.972717 663.263184,218.022949 
	C664.867249,218.662552 666.520752,219.392090 668.223572,219.978058 
	C669.525269,220.425995 670.889465,220.692291 672.225891,221.039398 
	C672.130432,221.692932 672.035034,222.346466 671.939636,223.000000 
	C669.558228,223.000000 667.176819,223.000000 664.351990,222.999878 
z"/>
<path fill="#004B91" opacity="1.000000" stroke="none" 
	d="
M318.372864,222.906860 
	C317.993408,222.096344 317.987335,221.359360 317.969299,220.254028 
	C319.303162,216.270935 320.398193,212.535095 322.067841,209.076691 
	C323.622101,205.857391 327.095551,205.991272 328.631348,209.249969 
	C330.620483,213.470566 332.299103,217.837494 333.389771,223.430573 
	C331.739685,222.613373 330.161377,221.393173 328.420959,221.083359 
	C326.353912,220.715424 324.147522,221.130493 321.741241,221.703812 
	C321.261688,222.364944 321.106201,222.575592 321.014465,222.833344 
	C320.258362,222.882355 319.502289,222.931351 318.372864,222.906860 
z"/>
<path fill="#004B91" opacity="1.000000" stroke="none" 
	d="
M620.478821,222.726562 
	C618.425110,222.961243 616.740356,222.820511 615.101379,223.033096 
	C611.617126,223.485001 608.667480,221.945786 608.235718,218.878555 
	C607.697693,215.057312 606.290527,209.979385 611.041077,207.772369 
	C613.799316,206.490891 617.421509,207.068817 620.654907,206.810028 
	C620.867310,207.422729 621.079651,208.035416 621.291992,208.648102 
	C618.533813,209.669952 615.775696,210.691788 613.017517,211.713638 
	C613.037842,212.070908 613.058167,212.428177 613.078491,212.785446 
	C615.558594,212.903244 618.038696,213.021057 620.746826,213.149689 
	C620.746826,214.394455 620.746826,215.464539 620.746826,216.805099 
	C618.175476,216.951340 615.652893,217.094788 613.130249,217.238251 
	C613.061646,217.649490 612.993042,218.060730 612.924377,218.471970 
	C614.945557,218.983261 617.039551,219.314529 618.953857,220.089615 
	C619.783020,220.425323 620.241638,221.676102 620.478821,222.726562 
z"/>
<path fill="#004B91" opacity="1.000000" stroke="none" 
	d="
M473.725464,207.121368 
	C476.944977,207.024414 479.743927,207.024414 482.542847,207.024414 
	C482.712006,207.555557 482.881165,208.086700 483.050323,208.617844 
	C480.390778,209.659775 477.731232,210.701706 475.026276,211.761429 
	C476.494232,215.464203 483.410309,209.519928 482.930969,216.733887 
	C480.311737,216.905319 477.751251,217.072891 475.190796,217.240479 
	C475.088531,217.574829 474.986298,217.909180 474.884064,218.243530 
	C477.715088,219.244324 480.546143,220.245102 483.377197,221.245895 
	C483.174927,221.827469 482.972656,222.409027 482.770386,222.990601 
	C478.858337,222.059235 474.183228,225.420715 471.044006,220.187683 
	C468.763672,216.386337 469.704681,211.202362 473.725464,207.121368 
z"/>
<path fill="#004B91" opacity="1.000000" stroke="none" 
	d="
M519.945862,221.166779 
	C516.231079,221.801147 512.242310,222.865982 508.820251,221.907486 
	C506.064819,221.135681 505.547882,213.498901 507.549072,209.989487 
	C510.617584,204.608475 515.671875,207.970993 519.740540,206.911499 
	C519.951294,207.325546 520.162109,207.739594 520.372864,208.153641 
	C519.588135,208.767029 518.866333,209.789597 518.007507,209.921753 
	C514.599304,210.446152 510.774261,210.628586 511.095398,215.346161 
	C511.409393,219.958801 515.124878,220.101364 518.692139,220.068359 
	C519.098267,220.064621 519.508362,220.494492 519.945862,221.166779 
z"/>
<path fill="#004B91" opacity="1.000000" stroke="none" 
	d="
M649.000000,218.846497 
	C649.000000,215.746750 649.000000,213.115173 649.000000,210.823868 
	C646.964600,210.018494 645.323669,209.369232 643.682800,208.719971 
	C643.873535,208.219101 644.064209,207.718246 644.254944,207.217377 
	C648.679504,207.217377 653.104004,207.217377 657.528564,207.217377 
	C657.721863,207.661179 657.915222,208.104980 658.108521,208.548782 
	C656.616089,209.247772 655.123596,209.946777 653.056519,210.914902 
	C653.056519,214.362717 653.056519,218.451141 653.056519,222.453308 
	C649.211975,223.976349 648.765747,222.031967 649.000000,218.846497 
z"/>
<path fill="#004B91" opacity="1.000000" stroke="none" 
	d="
M560.999817,222.985474 
	C560.024414,221.328568 559.239929,219.699860 559.064758,218.008057 
	C558.811584,215.563019 559.000000,213.072250 559.000000,210.745895 
	C557.041382,210.016434 555.350525,209.386688 553.659607,208.756927 
	C553.820923,208.254318 553.982239,207.751709 554.143555,207.249100 
	C558.714478,207.249100 563.285400,207.249100 567.856323,207.249100 
	C568.017212,207.731659 568.178101,208.214218 568.338989,208.696777 
	C566.785461,209.306564 565.231873,209.916351 562.999390,210.792633 
	C562.999390,213.454895 563.118774,216.737717 562.928894,220.002563 
	C562.869629,221.021835 561.975159,221.992523 560.999817,222.985474 
z"/>
<path fill="#004B91" opacity="1.000000" stroke="none" 
	d="
M710.358276,207.484375 
	C711.934204,207.112106 713.226379,207.112106 714.758362,207.112106 
	C714.758362,212.378555 714.758362,217.446228 714.758362,222.756119 
	C713.253662,222.756119 711.861511,222.756119 710.074463,222.756119 
	C710.074463,217.733170 710.074463,212.794907 710.358276,207.484375 
z"/>
<path fill="#004B91" opacity="1.000000" stroke="none" 
	d="
M464.000366,210.224731 
	C463.779938,205.483139 466.614777,207.299332 468.803467,207.168091 
	C468.803467,212.366592 468.803467,217.301636 468.803467,222.616608 
	C467.369232,222.616608 465.878235,222.616608 464.000000,222.616608 
	C464.000000,218.602280 464.000000,214.650375 464.000366,210.224731 
z"/>
<path fill="#004B91" opacity="1.000000" stroke="none" 
	d="
M335.000000,215.959213 
	C335.000000,212.842758 335.000000,210.209351 335.000000,207.403625 
	C337.714264,206.613708 339.212219,206.754456 339.048279,210.061508 
	C338.844269,214.177124 338.999329,218.310547 338.999329,222.917419 
	C332.740936,223.369339 335.913208,218.640106 335.000000,215.959213 
z"/>
<path fill="#004B91" opacity="1.000000" stroke="none" 
	d="
M321.274658,222.871429 
	C321.106201,222.575592 321.261688,222.364944 321.657166,222.109543 
	C321.733856,222.314987 321.634338,222.612259 321.274658,222.871429 
z"/>
<path fill="#004B91" opacity="1.000000" stroke="none" 
	d="
M93.132988,157.927780 
	C80.713661,145.406967 68.399841,132.778412 55.800934,120.440987 
	C52.645306,117.350838 52.694012,115.646530 55.814941,112.555550 
	C81.489136,87.127632 106.993240,61.527901 132.513382,35.944828 
	C133.552795,34.902863 134.238297,33.507854 134.815826,32.672146 
	C149.500168,47.359184 163.460876,61.322460 177.999985,75.864235 
	C171.436356,82.009491 164.352463,88.641853 157.094757,95.906883 
	C156.280167,97.081459 155.639404,97.623360 154.651855,98.116119 
	C153.140640,98.940697 151.851074,99.688965 150.830383,100.706841 
	C133.390045,118.099136 115.978058,135.519897 98.582489,152.956985 
	C97.672935,153.868713 96.965279,154.981842 96.025558,156.277832 
	C95.270538,157.091324 94.653580,157.628189 93.813828,158.093903 
	C93.591026,158.022736 93.132988,157.927780 93.132988,157.927780 
z"/>
<path fill="#A1A1A5" opacity="1.000000" stroke="none" 
	d="
M92.991623,158.239624 
	C93.132988,157.927780 93.591026,158.022736 93.974449,158.369781 
	C97.316597,161.246353 98.915352,158.453400 100.514984,156.901871 
	C107.068268,150.545609 113.492714,144.055511 119.919655,137.570175 
	C132.993561,124.377457 146.038376,111.155891 159.095184,97.946213 
	C159.715164,98.140045 160.521423,98.147743 160.928070,98.554733 
	C173.620529,111.257797 186.274048,123.999786 198.520233,136.320023 
	C170.548111,164.290985 142.690506,192.147430 114.665039,220.171722 
	C102.131508,207.634720 88.984665,194.415756 75.736610,181.299042 
	C73.496056,179.080673 73.835213,177.558487 75.918320,175.528595 
	C81.641907,169.951233 87.216629,164.221115 92.991623,158.239624 
z"/>
<path fill="#A1A1A5" opacity="1.000000" stroke="none" 
	d="
M158.974274,97.686554 
	C146.038376,111.155891 132.993561,124.377457 119.919655,137.570175 
	C113.492714,144.055511 107.068268,150.545609 100.514984,156.901871 
	C98.915352,158.453400 97.316597,161.246353 94.197250,158.440933 
	C94.653580,157.628189 95.270538,157.091324 96.378494,156.272156 
	C98.355988,155.050201 100.076141,154.345642 101.293770,153.135452 
	C118.342766,136.190567 135.335770,119.189217 152.291534,102.150993 
	C153.404816,101.032303 154.105850,99.503372 154.998642,98.165268 
	C155.639404,97.623360 156.280167,97.081459 157.032257,96.240143 
	C157.713516,96.436127 158.283447,96.931511 158.974274,97.686554 
z"/>
<path fill="#F8992F" opacity="1.000000" stroke="none" 
	d="
M37.015968,42.957626 
	C37.440666,42.572166 37.857323,42.162926 38.273975,41.753685 
	C38.454231,41.941238 38.634487,42.128792 38.814743,42.316345 
	C38.431217,42.531700 38.047691,42.747059 37.313774,42.936085 
	C36.963387,42.909752 37.007927,42.933853 37.015968,42.957626 
z"/>
<path fill="#FFFFFF" opacity="1.000000" stroke="none" 
	d="
M460.000000,107.921783 
	C460.000000,100.800598 460.000000,94.166924 460.000000,87.987396 
	C475.007568,87.987396 489.684784,87.814926 504.354828,88.064262 
	C511.118195,88.179207 513.822754,94.324921 514.808044,101.918228 
	C515.285583,105.598389 514.154114,109.647270 513.082703,113.334999 
	C510.884521,120.900627 504.580109,122.819862 497.748840,122.929825 
	C483.424286,123.160416 469.093445,122.999779 453.570374,122.999779 
	C460.408478,119.488747 460.325836,113.992897 460.000000,107.921783 
z"/>
<path fill="#FFFFFF" opacity="1.000000" stroke="none" 
	d="
M366.834045,218.651184 
	C365.092743,218.778656 362.588806,219.003586 362.339935,218.358505 
	C361.592468,216.421051 361.358582,214.084549 361.693359,212.028992 
	C361.827881,211.203094 364.878845,209.967712 365.043701,210.172623 
	C366.251221,211.673676 367.288269,213.417740 367.899719,215.245529 
	C368.184418,216.096497 367.401367,217.304672 366.834045,218.651184 
z"/>
<path fill="#FFFFFF" opacity="1.000000" stroke="none" 
	d="
M531.999634,214.996155 
	C530.854614,216.900848 529.709534,218.401382 528.564514,219.901917 
	C527.378540,218.186829 525.351929,216.512955 525.265198,214.743942 
	C525.192078,213.253769 527.373352,211.653046 528.556763,210.101273 
	C529.704407,211.598175 530.851990,213.095078 531.999634,214.996155 
z"/>
<path fill="#A1A1A5" opacity="1.000000" stroke="none" 
	d="
M154.651855,98.116119 
	C154.105850,99.503372 153.404816,101.032303 152.291534,102.150993 
	C135.335770,119.189217 118.342766,136.190567 101.293770,153.135452 
	C100.076141,154.345642 98.355988,155.050201 96.516556,155.995544 
	C96.965279,154.981842 97.672935,153.868713 98.582489,152.956985 
	C115.978058,135.519897 133.390045,118.099136 150.830383,100.706841 
	C151.851074,99.688965 153.140640,98.940697 154.651855,98.116119 
z"/>
</svg>