<svg version="1.1" id="Layer_1" xmlns="http://www.w3.org/2000/svg" xmlns:xlink="http://www.w3.org/1999/xlink" x="0px" y="0px"
	 width="100%" viewBox="0 0 407 360" enable-background="new 0 0 407 360" xml:space="preserve">
<path fill="#FEFFFF" opacity="1.000000" stroke="none" 
	d="
M243.000000,361.000000 
	C162.000000,361.000000 81.500000,361.000000 1.000000,361.000000 
	C1.000000,241.000000 1.000000,121.000000 1.000000,1.000000 
	C136.666672,1.000000 272.333344,1.000000 408.000000,1.000000 
	C408.000000,121.000000 408.000000,241.000000 408.000000,361.000000 
	C353.166656,361.000000 298.333344,361.000000 243.000000,361.000000 
M248.312531,332.831390 
	C249.893051,332.310394 251.472244,331.785248 253.054306,331.268921 
	C329.608643,306.285309 375.029633,229.245026 359.710327,150.364212 
	C343.475433,66.768883 262.443848,10.994116 177.879715,25.208591 
	C90.468262,39.901676 31.933727,124.990707 49.407581,211.962784 
	C67.543243,302.228882 158.792313,357.968872 248.312531,332.831390 
z"/>
<path fill="#3C90FD" opacity="1.000000" stroke="none" 
	d="
M247.912140,332.903595 
	C158.792313,357.968872 67.543243,302.228882 49.407581,211.962784 
	C31.933727,124.990707 90.468262,39.901676 177.879715,25.208591 
	C262.443848,10.994116 343.475433,66.768883 359.710327,150.364212 
	C375.029633,229.245026 329.608643,306.285309 253.054306,331.268921 
	C251.472244,331.785248 249.893051,332.310394 247.912140,332.903595 
M91.561691,95.092819 
	C60.850449,137.615616 53.739826,183.879471 72.573769,232.746262 
	C97.294312,296.886505 162.753830,332.355713 230.885223,320.209900 
	C292.738892,309.183167 341.752808,255.195190 345.918701,192.973724 
	C349.093292,145.558533 333.342743,105.298798 297.409454,74.065544 
	C263.482544,44.576233 223.574265,33.920105 179.253632,41.614403 
	C143.420074,47.835293 114.569702,66.152054 91.561691,95.092819 
z"/>
<path fill="#FEFEFE" opacity="1.000000" stroke="none" 
	d="
M91.776047,94.808548 
	C114.569702,66.152054 143.420074,47.835293 179.253632,41.614403 
	C223.574265,33.920105 263.482544,44.576233 297.409454,74.065544 
	C333.342743,105.298798 349.093292,145.558533 345.918701,192.973724 
	C341.752808,255.195190 292.738892,309.183167 230.885223,320.209900 
	C162.753830,332.355713 97.294312,296.886505 72.573769,232.746262 
	C53.739826,183.879471 60.850449,137.615616 91.776047,94.808548 
M140.368118,206.871490 
	C121.766708,224.830185 111.511963,246.190781 112.876228,272.586731 
	C174.323135,272.586731 235.057632,272.586731 296.510376,272.586731 
	C296.151642,266.792664 296.366058,261.252777 295.387634,255.932251 
	C289.565094,224.270279 270.545929,202.988876 242.242325,189.092651 
	C239.628387,187.809280 238.110016,188.642441 236.081818,190.173462 
	C216.847824,204.692505 192.532516,204.641617 173.646790,189.916794 
	C171.085678,187.919952 169.066330,187.593201 166.539322,189.277115 
	C157.985153,194.977325 149.442261,200.694443 140.368118,206.871490 
M157.902527,122.584984 
	C146.622375,156.728058 170.470261,190.212082 205.974365,190.081039 
	C233.693268,189.978729 255.934998,167.605225 256.017365,139.741577 
	C256.099182,112.055351 233.729050,89.010406 206.154739,89.205757 
	C183.154739,89.368690 167.189285,100.740845 157.902527,122.584984 
z"/>
<path fill="#3A8FFE" opacity="1.000000" stroke="none" 
	d="
M140.631592,206.638306 
	C149.442261,200.694443 157.985153,194.977325 166.539322,189.277115 
	C169.066330,187.593201 171.085678,187.919952 173.646790,189.916794 
	C192.532516,204.641617 216.847824,204.692505 236.081818,190.173462 
	C238.110016,188.642441 239.628387,187.809280 242.242325,189.092651 
	C270.545929,202.988876 289.565094,224.270279 295.387634,255.932251 
	C296.366058,261.252777 296.151642,266.792664 296.510376,272.586731 
	C235.057632,272.586731 174.323135,272.586731 112.876228,272.586731 
	C111.511963,246.190781 121.766708,224.830185 140.631592,206.638306 
z"/>
<path fill="#3A8FFE" opacity="1.000000" stroke="none" 
	d="
M158.007278,122.208878 
	C167.189285,100.740845 183.154739,89.368690 206.154739,89.205757 
	C233.729050,89.010406 256.099182,112.055351 256.017365,139.741577 
	C255.934998,167.605225 233.693268,189.978729 205.974365,190.081039 
	C170.470261,190.212082 146.622375,156.728058 158.007278,122.208878 
z"/>
</svg>